<svg width="800" height="800" viewBox="0 0 800 800" fill="none" xmlns="http://www.w3.org/2000/svg">
<g clip-path="url(#clip0_10_1333)">
<path d="M0 265.6C0 46.8784 46.8784 0 265.6 0H534.4C753.122 0 800 46.8784 800 265.6V534.4C800 753.122 753.122 800 534.4 800H265.6C46.8784 800 0 753.122 0 534.4V265.6Z" fill="white"/>
<path fill-rule="evenodd" clip-rule="evenodd" d="M0 265.918C0 46.9346 46.8784 0 265.6 0H534.4C753.122 0 800 46.9346 800 265.918V535.041C800 714.23 768.612 778.219 637.367 795.558C624.723 796.872 612.949 788.43 610.356 775.681C607.611 762.184 616.184 748.916 629.552 745.827C728.503 726.557 752.941 667.729 752.941 519.21V281.749C752.941 88.5281 711.578 47.1152 518.588 47.1152H281.412C88.4221 47.1152 47.0588 88.5281 47.0588 281.749V519.21C47.0588 667.492 71.4192 726.369 169.975 745.735L170.538 745.855C184.134 748.748 192.909 762.136 190.139 775.757C187.494 788.761 175.283 797.276 162.353 795.505V795.521C31.3438 778.128 0 714.102 0 535.041V265.918Z" fill="url(#paint0_linear_10_1333)"/>
<path d="M477.558 584.475L477.88 584.346C485.654 581.165 484.487 578.104 493.127 582.877L532.709 604.687C537.415 607.295 547.73 610.814 549.534 616.373C552.576 625.746 539.935 634.947 534.802 640.619C509.603 668.456 484.675 696.791 460.627 726.001L431.448 761.829C428.833 765.039 407.543 793.881 403.104 787.111L403.268 786.561L403.201 786.624C406.627 779.701 423.909 759.348 428.997 753.115L482.074 688.703C479.52 689.364 468.464 704.524 464.657 706.396C467.998 700.372 476.18 692.452 480.962 687.106C489.129 674.923 508.616 654.633 518.668 644.14C524.314 638.245 539.575 626.981 534.512 616.242C530.167 607.031 515.67 605.233 508.099 601.428C497.712 596.208 488.515 588.089 477.558 584.475Z" fill="#14BBAB"/>
<path d="M480.962 687.106L481.068 687.564C479.741 689.466 478.089 690.997 476.689 692.822L476.807 692.973C479.274 691.718 485.083 682.731 486.907 682.713C485.801 684.511 483.664 687.566 482.074 688.703C479.52 689.364 468.464 704.524 464.657 706.396C467.998 700.372 476.18 692.452 480.962 687.106Z" fill="#55A899"/>
<path d="M426.545 373.295C439.722 368.66 450.088 376.829 453.881 392.044C455.729 399.455 453.875 409.254 453.185 416.798L440.061 600.467C439.702 605.091 438.566 610.512 439.013 615.095C447.772 607.235 455.518 597.875 464.185 589.887C469.37 585.107 471.196 583.541 477.558 584.475C488.515 588.089 497.712 596.208 508.099 601.428C515.67 605.233 530.167 607.031 534.512 616.242C539.575 626.981 524.314 638.245 518.668 644.14C508.616 654.633 489.129 674.923 480.961 687.106C476.18 692.452 467.998 700.372 464.657 706.396C452.116 721.156 439.633 736.006 427.42 751.145L409.961 773.065C392.589 795.197 391.947 801.108 371.763 773.431L357.501 754.078C328.089 713.7 295.517 673.351 262.311 637.508C259.065 634.005 253.178 629.244 251.291 624.931C246.166 613.211 257.519 606.915 264.041 601.636C269.23 597.436 274.461 593.325 279.714 589.237C286.698 583.801 292.055 578.576 300.948 582.116C312.922 575.539 318.976 585.562 327.717 593.517C332.773 598.119 338.217 602.535 342.938 607.587C343.5 600.639 343.899 593.799 344.241 586.817L345.82 554.716C347.315 522.946 348.521 491.16 349.444 459.358L351.02 403.298C351.794 373.85 363.756 376.194 384.846 375.167C398.882 374.483 412.505 373.739 426.545 373.295ZM345.679 628.132C350.866 635.247 360.766 643.024 364.664 649.476L364.625 650.451C364.198 650.716 364.205 650.668 363.761 650.648C369.252 656.226 375.014 661.519 380.341 667.304C385.955 676.007 385.297 686.18 386.337 696.519L389.546 730.753C390.676 742.957 392.741 760.405 391.326 772.317C390.776 776.953 389.403 777.736 387.068 781.113C393.519 787.64 398.26 777.884 402.538 776.343C404.653 774.454 409.285 767.576 411.376 764.851C442.546 724.219 476.629 681.934 511.237 645.208C514.777 641.452 530.554 627.63 526.246 620.44C524.151 616.943 484.067 591.044 475.755 589.516C474.845 589.518 473.914 589.57 473.006 589.516C468.045 590.874 464.078 596.12 460.244 599.795C448.151 611.382 436.5 625.16 424.525 636.161C423.693 635.479 422.135 634.47 421.808 633.294C421.219 631.178 422.865 603.456 423.084 598.618L425.511 543.073C426.205 528.814 426.786 514.509 427.828 500.279L433.545 424.069C434.5 410.881 437.659 387.906 424.525 381.621C412.04 380.702 399.715 381.028 387.225 381.494C354.986 382.695 359.59 390.302 358.503 420.767L353.404 553.945C353.165 559.987 351.301 626.204 349.623 628.352C348.378 628.882 346.948 628.404 345.679 628.132ZM293.644 585.759C289.639 586.118 258.768 610.266 255.696 614.412C249.989 622.113 260.689 629.62 264.901 634.151C303.616 675.808 338.572 721.625 372.944 768.145C384.746 784.119 388.027 796.158 402.538 776.343C398.26 777.884 393.519 787.64 387.068 781.113C384.796 778.569 382.789 775.326 380.761 772.5C345.483 723.371 308.412 674.758 267.982 631.472C265.275 628.573 261.898 625.817 259.536 622.555C255.397 616.838 262.411 613.485 265.735 610.749C269.91 607.313 293.517 590.249 293.917 586.14L293.644 585.759ZM343.919 625.835C344.464 626.688 345 627.423 345.679 628.132C346.948 628.404 348.378 628.882 349.623 628.352C351.301 626.204 353.165 559.987 353.404 553.945L358.503 420.767C359.59 390.302 354.986 382.695 387.225 381.494C399.715 381.028 412.04 380.702 424.525 381.621C418.275 376.383 415.071 378.223 407.767 378.771L389.522 379.945C382.009 380.402 373.957 379.761 366.54 381.18C352.466 383.874 355.177 404.707 354.789 416.851L347.325 609.738C347.105 614.693 348.377 623.129 343.919 625.835ZM427.34 378.439C441.906 393.357 436.394 413.087 435.44 433.351L426.837 614.896C426.619 619.719 426.527 624.363 425.68 629.115L427.636 628.132C428.218 627.227 428.777 626.344 429.254 625.353C428.95 600.282 430.38 575.167 431.691 550.16L439.035 418.826C439.802 405.612 442.944 382.627 427.34 378.439ZM514.547 608.892C521.329 612.821 531.705 616.232 528.942 627.242C529.417 626.889 529.662 626.374 529.964 625.835C531.228 623.462 531.495 621.991 531.34 619.205C528.519 614.06 519.605 609.766 514.547 608.892Z" fill="#010101"/>
<path d="M300.948 582.116C312.922 575.539 318.976 585.562 327.717 593.517C332.773 598.119 338.217 602.535 342.938 607.587C343.139 612.153 342.878 616.757 342.938 621.335C339.061 618.642 335.448 614.716 332.003 611.328L316.675 596.132C311.579 591.086 306.698 586.137 300.948 582.116Z" fill="#B33F42"/>
<path d="M426.545 373.295C439.722 368.66 450.088 376.829 453.881 392.044C455.729 399.455 453.875 409.254 453.185 416.798L440.061 600.467C439.702 605.091 438.566 610.512 439.013 615.095C437.595 617.277 435.359 619.277 433.735 621.335C433.448 613.729 433.799 606.078 434.011 598.475C435.4 548.713 438.852 499.062 441.599 449.389L443.507 417.704C444.649 398.503 445.851 379.137 426.545 373.295Z" fill="#14BBAB"/>
<path d="M293.644 585.759C300.728 584.264 309.088 594.909 313.97 599.765L330.022 615.765C333.419 619.203 336.765 622.948 340.522 625.835C341.643 625.329 342.773 625.595 343.919 625.835C344.465 626.688 345 627.423 345.679 628.132C350.866 635.248 360.766 643.024 364.664 649.476L364.625 650.451C364.198 650.716 364.205 650.669 363.761 650.648C369.252 656.226 375.014 661.519 380.341 667.304C385.955 676.007 385.297 686.18 386.338 696.519L389.546 730.753C390.676 742.957 392.741 760.405 391.326 772.317C390.776 776.953 389.403 777.736 387.068 781.114C384.797 778.569 382.789 775.326 380.761 772.5C345.483 723.371 308.412 674.759 267.982 631.472C265.275 628.573 261.898 625.817 259.536 622.555C255.397 616.838 262.411 613.485 265.735 610.749C269.91 607.313 293.517 590.249 293.917 586.14L293.644 585.759Z" fill="#FC625D"/>
<path d="M340.522 625.835C341.643 625.329 342.773 625.595 343.919 625.835C344.464 626.688 345 627.423 345.679 628.132C350.866 635.248 360.766 643.024 364.664 649.476L364.625 650.451C364.198 650.716 364.205 650.669 363.761 650.648C356.544 644.032 346.496 633.465 340.522 625.835Z" fill="#2C1B34"/>
<path d="M345.679 628.132C346.948 628.404 348.378 628.882 349.623 628.352C351.301 626.204 353.165 559.987 353.404 553.944L358.503 420.767C359.59 390.302 354.986 382.695 387.225 381.494C399.715 381.028 412.04 380.702 424.525 381.621C437.659 387.906 434.501 410.881 433.545 424.069L427.828 500.279C426.786 514.509 426.205 528.814 425.511 543.073L423.084 598.618C422.865 603.456 421.219 631.178 421.808 633.294C422.135 634.47 423.693 635.479 424.525 636.161C436.5 625.16 448.151 611.382 460.244 599.795C464.079 596.12 468.045 590.874 473.006 589.516C473.914 589.57 474.845 589.518 475.755 589.516C484.067 591.044 524.151 616.943 526.246 620.44C530.554 627.63 514.777 641.452 511.238 645.208C476.629 681.934 442.546 724.219 411.376 764.851C409.285 767.576 404.654 774.454 402.538 776.343C398.26 777.884 393.519 787.64 387.068 781.113C389.403 777.736 390.776 776.953 391.326 772.317C392.741 760.405 390.676 742.957 389.546 730.753L386.338 696.519C385.297 686.18 385.955 676.007 380.341 667.304C375.014 661.519 369.252 656.226 363.761 650.648C364.205 650.668 364.198 650.716 364.625 650.451L364.664 649.476C360.766 643.024 350.866 635.247 345.679 628.132ZM473.006 589.516C468.045 590.874 464.079 596.12 460.244 599.795C448.151 611.382 436.5 625.16 424.525 636.161C425.59 647.467 438.177 629.365 441.329 626.06L475.755 589.516C474.845 589.518 473.914 589.57 473.006 589.516Z" fill="#FED45E"/>
<path d="M364.664 649.476C368.309 653.66 378.196 663.114 380.341 667.304C375.014 661.519 369.252 656.226 363.76 650.648C364.205 650.669 364.198 650.716 364.625 650.451L364.664 649.476Z" fill="#010101"/>
<path d="M398.553 394.367C400.057 394.265 417.868 393.553 412.435 400.103C410.392 402.566 388.824 393.479 376.03 410.969C375.877 411.207 368.558 427.02 367.94 417.509C367.055 403.891 389.017 394.846 398.553 394.367Z" fill="white"/>
<path d="M477.558 300.475L477.88 300.346C485.654 297.165 484.487 294.104 493.127 298.877L532.709 320.687C537.415 323.295 547.73 326.814 549.534 332.373C552.576 341.746 539.935 350.947 534.802 356.619C509.603 384.456 484.675 412.791 460.627 442.001L431.448 477.829C428.833 481.039 407.543 509.881 403.104 503.111L403.268 502.561L403.201 502.624C406.627 495.701 423.909 475.348 428.997 469.115L482.074 404.703C479.52 405.364 468.464 420.524 464.657 422.396C467.998 416.372 476.18 408.452 480.962 403.106C489.129 390.923 508.616 370.633 518.668 360.14C524.314 354.245 539.575 342.981 534.512 332.242C530.167 323.031 515.67 321.233 508.099 317.428C497.712 312.208 488.515 304.089 477.558 300.475Z" fill="#14BBAB"/>
<path d="M480.962 403.106L481.068 403.564C479.741 405.466 478.089 406.997 476.689 408.822L476.807 408.973C479.274 407.718 485.083 398.731 486.907 398.713C485.801 400.511 483.664 403.567 482.074 404.703C479.52 405.364 468.464 420.524 464.657 422.396C467.998 416.372 476.18 408.452 480.962 403.106Z" fill="#55A899"/>
<path d="M426.545 89.2947C439.722 84.6599 450.088 92.8295 453.881 108.044C455.729 115.455 453.875 125.254 453.185 132.798L440.061 316.467C439.702 321.091 438.566 326.512 439.013 331.095C447.772 323.235 455.518 313.875 464.185 305.887C469.37 301.107 471.196 299.541 477.558 300.475C488.515 304.089 497.712 312.208 508.099 317.428C515.67 321.233 530.167 323.031 534.512 332.242C539.575 342.981 524.314 354.245 518.668 360.14C508.616 370.633 489.129 390.923 480.961 403.106C476.18 408.452 467.998 416.372 464.657 422.396C452.116 437.156 439.633 452.006 427.42 467.145L409.961 489.065C392.589 511.197 391.947 517.108 371.763 489.431L357.501 470.078C328.089 429.7 295.517 389.351 262.311 353.508C259.065 350.005 253.178 345.244 251.291 340.931C246.166 329.211 257.519 322.915 264.041 317.636C269.23 313.436 274.461 309.325 279.714 305.237C286.698 299.801 292.055 294.576 300.948 298.116C312.922 291.539 318.976 301.562 327.717 309.517C332.773 314.119 338.217 318.535 342.938 323.587C343.5 316.639 343.899 309.799 344.241 302.817L345.82 270.716C347.315 238.946 348.521 207.16 349.444 175.358L351.02 119.298C351.794 89.8495 363.756 92.1938 384.846 91.1667C398.882 90.4831 412.505 89.7393 426.545 89.2947ZM345.679 344.132C350.866 351.247 360.766 359.024 364.664 365.476L364.625 366.451C364.198 366.716 364.205 366.668 363.761 366.648C369.252 372.226 375.014 377.519 380.341 383.304C385.955 392.007 385.297 402.18 386.337 412.519L389.546 446.753C390.676 458.957 392.741 476.405 391.326 488.317C390.776 492.953 389.403 493.736 387.068 497.113C393.519 503.64 398.26 493.884 402.538 492.343C404.653 490.454 409.285 483.576 411.376 480.851C442.546 440.219 476.629 397.934 511.237 361.208C514.777 357.452 530.554 343.63 526.246 336.44C524.151 332.943 484.067 307.044 475.755 305.516C474.845 305.518 473.914 305.57 473.006 305.516C468.045 306.874 464.078 312.12 460.244 315.795C448.151 327.382 436.5 341.16 424.525 352.161C423.693 351.479 422.135 350.47 421.808 349.294C421.219 347.178 422.865 319.456 423.084 314.618L425.511 259.073C426.205 244.814 426.786 230.509 427.828 216.279L433.545 140.069C434.5 126.881 437.659 103.906 424.525 97.6206C412.04 96.7025 399.715 97.0279 387.225 97.4935C354.986 98.6951 359.59 106.302 358.503 136.767L353.404 269.945C353.165 275.987 351.301 342.204 349.623 344.352C348.378 344.882 346.948 344.404 345.679 344.132ZM293.644 301.759C289.639 302.118 258.768 326.266 255.696 330.412C249.989 338.113 260.689 345.62 264.901 350.151C303.616 391.808 338.572 437.625 372.944 484.145C384.746 500.119 388.027 512.158 402.538 492.343C398.26 493.884 393.519 503.64 387.068 497.113C384.796 494.569 382.789 491.326 380.761 488.5C345.483 439.371 308.412 390.758 267.982 347.472C265.275 344.573 261.898 341.817 259.536 338.555C255.397 332.838 262.411 329.485 265.735 326.749C269.91 323.313 293.517 306.249 293.917 302.14L293.644 301.759ZM343.919 341.835C344.464 342.688 345 343.423 345.679 344.132C346.948 344.404 348.378 344.882 349.623 344.352C351.301 342.204 353.165 275.987 353.404 269.945L358.503 136.767C359.59 106.302 354.986 98.6951 387.225 97.4935C399.715 97.0279 412.04 96.7025 424.525 97.6206C418.275 92.3831 415.071 94.2228 407.767 94.7712L389.522 95.9448C382.009 96.4021 373.957 95.7607 366.54 97.1804C352.466 99.8745 355.177 120.707 354.789 132.851L347.325 325.738C347.105 330.693 348.377 339.129 343.919 341.835ZM427.34 94.4391C441.906 109.357 436.394 129.087 435.44 149.351L426.837 330.896C426.619 335.719 426.527 340.363 425.68 345.115L427.636 344.132C428.218 343.227 428.777 342.344 429.254 341.353C428.95 316.282 430.38 291.167 431.691 266.16L439.035 134.826C439.802 121.612 442.944 98.6273 427.34 94.4391ZM514.547 324.892C521.329 328.821 531.705 332.232 528.942 343.242C529.417 342.889 529.662 342.374 529.964 341.835C531.228 339.462 531.495 337.991 531.34 335.205C528.519 330.06 519.605 325.766 514.547 324.892Z" fill="#010101"/>
<path d="M300.948 298.116C312.922 291.539 318.976 301.562 327.717 309.517C332.773 314.119 338.217 318.535 342.938 323.587C343.139 328.153 342.878 332.757 342.938 337.335C339.061 334.642 335.448 330.716 332.003 327.328L316.675 312.132C311.579 307.086 306.698 302.137 300.948 298.116Z" fill="#B33F42"/>
<path d="M426.545 89.2947C439.722 84.6599 450.088 92.8295 453.881 108.044C455.729 115.455 453.875 125.254 453.185 132.798L440.061 316.467C439.702 321.091 438.566 326.512 439.013 331.095C437.595 333.277 435.359 335.277 433.735 337.335C433.448 329.729 433.799 322.078 434.011 314.475C435.4 264.713 438.852 215.062 441.599 165.389L443.507 133.704C444.649 114.503 445.851 95.1369 426.545 89.2947Z" fill="#14BBAB"/>
<path d="M293.644 301.759C300.728 300.264 309.088 310.909 313.97 315.765L330.022 331.765C333.419 335.203 336.765 338.948 340.522 341.835C341.643 341.329 342.773 341.595 343.919 341.835C344.465 342.688 345 343.423 345.679 344.132C350.866 351.247 360.766 359.024 364.664 365.476L364.625 366.451C364.198 366.716 364.205 366.668 363.761 366.648C369.252 372.226 375.014 377.519 380.341 383.304C385.955 392.007 385.297 402.18 386.338 412.519L389.546 446.753C390.676 458.957 392.741 476.405 391.326 488.317C390.776 492.953 389.403 493.736 387.068 497.113C384.797 494.569 382.789 491.326 380.761 488.5C345.483 439.371 308.412 390.758 267.982 347.472C265.275 344.573 261.898 341.817 259.536 338.555C255.397 332.838 262.411 329.485 265.735 326.749C269.91 323.313 293.517 306.249 293.917 302.14L293.644 301.759Z" fill="#FC625D"/>
<path d="M340.522 341.835C341.643 341.329 342.773 341.595 343.919 341.835C344.464 342.688 345 343.423 345.679 344.132C350.866 351.248 360.766 359.024 364.664 365.476L364.625 366.451C364.198 366.716 364.205 366.669 363.761 366.648C356.544 360.032 346.496 349.465 340.522 341.835Z" fill="#2C1B34"/>
<path d="M345.679 344.132C346.948 344.404 348.378 344.882 349.623 344.352C351.301 342.204 353.165 275.987 353.404 269.944L358.503 136.767C359.59 106.302 354.986 98.6951 387.225 97.4935C399.715 97.0279 412.04 96.7025 424.525 97.6206C437.659 103.906 434.501 126.881 433.545 140.069L427.828 216.279C426.786 230.509 426.205 244.814 425.511 259.073L423.084 314.618C422.865 319.456 421.219 347.178 421.808 349.294C422.135 350.47 423.693 351.479 424.525 352.161C436.5 341.16 448.151 327.382 460.244 315.795C464.079 312.12 468.045 306.874 473.006 305.516C473.914 305.57 474.845 305.518 475.755 305.516C484.067 307.044 524.151 332.943 526.246 336.44C530.554 343.63 514.777 357.452 511.238 361.208C476.629 397.934 442.546 440.219 411.376 480.851C409.285 483.576 404.654 490.454 402.538 492.343C398.26 493.884 393.519 503.64 387.068 497.113C389.403 493.736 390.776 492.953 391.326 488.317C392.741 476.405 390.676 458.957 389.546 446.753L386.338 412.519C385.297 402.18 385.955 392.007 380.341 383.304C375.014 377.519 369.252 372.226 363.761 366.648C364.205 366.668 364.198 366.716 364.625 366.451L364.664 365.476C360.766 359.024 350.866 351.247 345.679 344.132ZM473.006 305.516C468.045 306.874 464.079 312.12 460.244 315.795C448.151 327.382 436.5 341.16 424.525 352.161C425.59 363.467 438.177 345.365 441.329 342.06L475.755 305.516C474.845 305.518 473.914 305.57 473.006 305.516Z" fill="#FED45E"/>
<path d="M364.664 365.476C368.309 369.66 378.196 379.114 380.341 383.304C375.014 377.519 369.252 372.226 363.76 366.648C364.205 366.669 364.198 366.716 364.625 366.451L364.664 365.476Z" fill="#010101"/>
<path d="M398.553 110.367C400.057 110.265 417.868 109.553 412.435 116.103C410.392 118.566 388.824 109.479 376.03 126.969C375.877 127.207 368.558 143.02 367.94 133.509C367.055 119.891 389.017 110.846 398.553 110.367Z" fill="white"/>
<path d="M630.444 251.801C650.302 259.091 644.144 289.993 644.128 308.191L644.114 466.379C644.114 481.675 644.476 497.069 644.11 512.357C639.378 513.165 635.186 512.957 630.444 512.357C634.944 504.347 632.594 470.887 632.596 460.547L632.592 312.871C632.592 298.495 634.306 263.343 630.444 251.801Z" fill="#FC625D"/>
<path d="M644.11 512.357C644.266 549.173 651.098 564.639 610.56 564.669L293.522 564.665C274.2 564.667 188.096 570.245 176.144 557.587C180.148 557.295 183.946 557.487 186.492 553.841C191.516 554.427 196.66 553.859 201.706 553.849L519.332 553.841C532.164 553.841 617.918 556.627 623.794 551.381C634.19 542.101 630.046 524.715 630.444 512.357C635.186 512.957 639.378 513.165 644.11 512.357Z" fill="#35DDE9"/>
<path d="M176.144 557.587C148.024 548.535 156.06 511.997 156.07 487.405L156.062 311.629C156.038 295.117 155.458 278.449 156.022 261.961C157.078 231.091 185.06 234.293 206.218 234.321L537.418 234.365C559.904 234.371 582.69 233.511 605.136 234.411C616.954 234.885 625.678 240.755 630.444 251.801C634.306 263.343 632.592 298.495 632.592 312.871L632.596 460.547C632.594 470.887 634.944 504.347 630.444 512.357C630.046 524.715 634.19 542.101 623.794 551.381C617.918 556.627 532.164 553.841 519.332 553.841L201.706 553.849C196.66 553.859 191.516 554.427 186.492 553.841C183.946 557.487 180.148 557.295 176.144 557.587ZM164.832 520.529C168.012 516.881 171.146 513.299 173.684 509.155C172.87 499.465 173.654 489.067 173.662 479.293L173.67 325.345C173.67 307.935 173.196 290.377 173.924 272.989C175.058 245.867 203.382 251.761 221.998 251.779L561.28 251.803C570.346 251.803 616.482 253.485 620.896 251.801C610.852 237.637 585.26 242.963 569.282 242.965L224.234 242.969C213.976 242.967 181.096 240.391 172.98 246.299C160.894 255.099 164.77 273.083 164.792 286.039L164.832 520.529Z" fill="black"/>
<path d="M337.44 479.695L336.778 478.985L336.818 477.787C339.458 472.553 401.34 403.597 405.73 400.747C409.046 398.593 411.516 398.629 415.25 399.529C403.74 401.863 382.462 430.429 373.248 440.533L348.088 467.851C344.496 471.759 340.378 475.227 337.44 479.695Z" fill="url(#paint1_linear_10_1333)"/>
<path d="M173.684 523.219C188.432 503.893 205.686 486.159 221.768 467.923C231.91 456.423 254.208 422.761 268.048 422.033C259.454 427.547 243.26 447.727 235.868 456.237L189.23 509.911C184.766 514.965 180.02 524.929 173.684 523.219Z" fill="#FED45E"/>
<path d="M415.25 399.529C418.22 399.803 420.566 400.799 423.078 402.369L420.152 404.247C411.44 409.737 404.708 418.953 397.878 426.579L364.794 463.723C358.174 471.235 351.564 479.639 344.22 486.411L337.44 479.695C340.378 475.227 344.496 471.759 348.088 467.851L373.248 440.533C382.462 430.429 403.74 401.863 415.25 399.529Z" fill="white"/>
<path d="M474.566 445.467C478.556 438.579 484.54 432.371 489.592 426.231L520.236 389.543C529.654 378.415 544.882 348.989 559.894 370.433C548.856 371.315 545.282 375.211 538.394 383.273C519.376 405.529 499.322 429.749 481.596 452.859C479.122 450.481 476.784 448.087 474.566 445.467Z" fill="white"/>
<path d="M268.048 422.033C271.114 423.013 273.486 424.215 275.968 426.259C262.324 440.107 183.496 526.725 176.144 542.613C176.114 544.519 176.066 546.423 176.144 548.329C159.98 543.297 164.574 532.189 173.684 523.219C180.02 524.929 184.766 514.965 189.23 509.911L235.868 456.237C243.26 447.727 259.454 427.547 268.048 422.033Z" fill="white"/>
<path d="M559.894 370.433L592.418 410.593C603.142 423.655 614.236 436.587 624.398 450.089L624.362 492.783C624.336 499.165 623.42 506.069 624.398 512.357H630.444C630.046 524.715 634.19 542.101 623.794 551.381C617.918 556.627 532.164 553.841 519.332 553.841L201.706 553.849C196.66 553.859 191.516 554.427 186.492 553.841C184.284 548.821 181.454 548.407 176.144 548.329C176.066 546.423 176.114 544.519 176.144 542.613C183.496 526.725 262.324 440.107 275.968 426.259C285.756 435.571 294.78 445.849 303.872 455.835L347.386 504.015C355.194 512.651 364.096 523.825 372.748 531.427C375.312 533.679 381.548 534.493 380.622 529.317C379.438 522.689 350.384 494.297 344.22 486.411C351.564 479.639 358.174 471.235 364.794 463.723L397.878 426.579C404.708 418.953 411.44 409.737 420.152 404.247L423.078 402.369C430.48 408.331 436.21 417.299 442.68 424.303C466.352 449.939 489.346 476.147 512.876 501.907C520.478 510.229 533.338 525.919 541.546 532.299C553.612 524.333 533.432 510.833 525.756 502.497C510.884 486.345 495.338 469.979 481.596 452.859C499.322 429.749 519.376 405.529 538.394 383.273C545.282 375.211 548.856 371.315 559.894 370.433Z" fill="#15BBAB"/>
<path d="M620.896 251.801C626.566 259.297 624.414 272.991 624.42 281.799L624.398 436.261C617.144 425.239 607.534 415.249 599.264 404.927L576.152 376.193C548.134 341.817 543.644 348.925 516.604 380.333C500.196 399.393 483.642 418.515 467.934 438.155L447.788 415.785C418.404 382.909 411.932 379.919 381.368 414.079C365.658 431.637 346.524 454.919 329.818 470.591L299.892 438.021C266.782 401.951 265.058 404.535 231.594 443.023L191.308 489.009C185.576 495.535 180.166 503.459 173.684 509.155C172.87 499.465 173.654 489.067 173.662 479.293L173.67 325.345C173.67 307.935 173.196 290.377 173.924 272.989C175.058 245.867 203.382 251.761 221.998 251.779L561.28 251.803C570.346 251.803 616.482 253.485 620.896 251.801Z" fill="#FC625D"/>
<path d="M309.388 282.235C378.174 275.397 391.24 379.227 319.768 388.201C252.978 394.399 236.532 291.243 309.388 282.235Z" fill="black"/>
<path d="M293.452 372.797C240.014 344.863 289.264 262.173 341.398 300.111C337.054 300.823 333.066 299.017 328.804 298.607C297.432 295.593 271.554 334.005 286.246 361.943C287.656 364.623 293.142 370.769 293.452 372.797Z" fill="white"/>
<path d="M293.452 372.797C293.142 370.769 287.656 364.623 286.246 361.943C271.554 334.005 297.432 295.593 328.804 298.607C333.066 299.017 337.054 300.823 341.398 300.111C372.824 321.547 358.908 372.245 323.016 378.601C313.97 380.203 300.834 378.761 293.452 372.797Z" fill="#FED45E"/>
</g>
<defs>
<linearGradient id="paint0_linear_10_1333" x1="400" y1="0" x2="400" y2="800.016" gradientUnits="userSpaceOnUse">
<stop stop-color="#FC625D"/>
<stop offset="0.583333" stop-color="#15BBAB"/>
</linearGradient>
<linearGradient id="paint1_linear_10_1333" x1="373.029" y1="434.67" x2="376.649" y2="437.713" gradientUnits="userSpaceOnUse">
<stop stop-color="#F58566"/>
<stop offset="1" stop-color="#FFA46C"/>
</linearGradient>
<clipPath id="clip0_10_1333">
<rect width="800" height="800" fill="white"/>
</clipPath>
</defs>
</svg>
